<svg xmlns="http://www.w3.org/2000/svg" width="1080" height="1080" viewBox="0 0 1080 1080"><rect width="1080" height="1080" fill="#142B5F"></rect><g stroke="#ffffff" stroke-opacity="0.045" stroke-width="3"><path d="M-1080 1080 L0 0"></path><path d="M-1020 1080 L60 0"></path><path d="M-960 1080 L120 0"></path><path d="M-900 1080 L180 0"></path><path d="M-840 1080 L240 0"></path><path d="M-780 1080 L300 0"></path><path d="M-720 1080 L360 0"></path><path d="M-660 1080 L420 0"></path><path d="M-600 1080 L480 0"></path><path d="M-540 1080 L540 0"></path><path d="M-480 1080 L600 0"></path><path d="M-420 1080 L660 0"></path><path d="M-360 1080 L720 0"></path><path d="M-300 1080 L780 0"></path><path d="M-240 1080 L840 0"></path><path d="M-180 1080 L900 0"></path><path d="M-120 1080 L960 0"></path><path d="M-60 1080 L1020 0"></path><path d="M0 1080 L1080 0"></path><path d="M60 1080 L1140 0"></path><path d="M120 1080 L1200 0"></path><path d="M180 1080 L1260 0"></path><path d="M240 1080 L1320 0"></path><path d="M300 1080 L1380 0"></path><path d="M360 1080 L1440 0"></path><path d="M420 1080 L1500 0"></path><path d="M480 1080 L1560 0"></path><path d="M540 1080 L1620 0"></path><path d="M600 1080 L1680 0"></path><path d="M660 1080 L1740 0"></path><path d="M720 1080 L1800 0"></path><path d="M780 1080 L1860 0"></path><path d="M840 1080 L1920 0"></path><path d="M900 1080 L1980 0"></path><path d="M960 1080 L2040 0"></path><path d="M1020 1080 L2100 0"></path><path d="M1080 1080 L2160 0"></path><path d="M1140 1080 L2220 0"></path><path d="M1200 1080 L2280 0"></path><path d="M1260 1080 L2340 0"></path><path d="M1320 1080 L2400 0"></path><path d="M1380 1080 L2460 0"></path><path d="M1440 1080 L2520 0"></path><path d="M1500 1080 L2580 0"></path><path d="M1560 1080 L2640 0"></path><path d="M1620 1080 L2700 0"></path><path d="M1680 1080 L2760 0"></path><path d="M1740 1080 L2820 0"></path><path d="M1800 1080 L2880 0"></path><path d="M1860 1080 L2940 0"></path><path d="M1920 1080 L3000 0"></path><path d="M1980 1080 L3060 0"></path><path d="M2040 1080 L3120 0"></path><path d="M2100 1080 L3180 0"></path><path d="M2160 1080 L3240 0"></path><path d="M2220 1080 L3300 0"></path><path d="M2280 1080 L3360 0"></path><path d="M2340 1080 L3420 0"></path><path d="M2400 1080 L3480 0"></path><path d="M2460 1080 L3540 0"></path></g><g transform="translate(430,290) scale(3.44)"><path d="M13 45 L32 14 L51 45" fill="none" stroke="#F4F2EC" stroke-width="7.5" stroke-linecap="round" stroke-linejoin="round"></path><rect x="23" y="51" width="18" height="5" rx="2.5" fill="#E0A951"></rect></g><text x="540" y="610" text-anchor="middle" font-family="Archivo, &#34;Be Vietnam Pro&#34;, Helvetica, Arial, sans-serif" font-size="76" font-weight="800" letter-spacing="-2.5" fill="#F4F2EC">HANGIL 한길</text><text x="540" y="680" text-anchor="middle" font-family="Archivo, &#34;Be Vietnam Pro&#34;, Helvetica, Arial, sans-serif" font-size="34" font-weight="500" fill="#E0A951">Luyện nói với AI · miễn phí</text><text x="540" y="732" text-anchor="middle" font-family="&#34;Noto Sans KR&#34;, sans-serif" font-size="30" font-weight="500" fill="#7A90C0">AI 회화 연습 · 무료</text></svg>